<?xml version="1.0" encoding="utf-8"?>
<!-- Generator: Adobe Illustrator 25.4.1, SVG Export Plug-In . SVG Version: 6.00 Build 0)  -->
<svg version="1.1" id="e6d15d18-a685-4480-ac2b-bd578043a679"
	 xmlns="http://www.w3.org/2000/svg" xmlns:xlink="http://www.w3.org/1999/xlink" x="0px" y="0px" viewBox="0 0 1041.3 554.2"
	 style="enable-background:new 0 0 1041.3 554.2;" xml:space="preserve">
<style type="text/css">
	.st0{fill:#F2F2F2;}
	.st1{opacity:0.1;enable-background:new    ;}
	.st2{fill:#65617D;}
	.st3{opacity:0.2;enable-background:new    ;}
	.st4{fill:#3F3D56;}
	.st5{fill:#345F65;}
	.st6{fill:#774A3F;}
	.st7{fill:#603131;}
	.st8{fill:#D99152;}
</style>
<path class="st0" d="M961.5,438.2c-1.2,2.5-2.3,5-3.5,7.4c-1.8,3.8-3.6,7.5-5.3,11.1c-0.8,1.6-1.6,3.2-2.3,4.8
	c-8.6,17.6-16.6,33.1-23.5,45.9c-12.6,23.6-37.1,38.4-63.8,38.7l-151.6,1.7h-1.6l-13,0.1l-11.1,0.1l-34.1,0.4h-1.4l-17.4,0.2h-0.5
	l-107,1.2l-95.5,1l-11.1,0.1l-69,0.8h-0.1l-44.8,0.5h-0.5l-141.5,1.5l-42.3,0.5c-3.6,0-7.2-0.1-10.8-0.5l0,0
	c-1.2-0.1-2.4-0.3-3.6-0.5c-19.7-3-37.8-12.8-51.3-27.5c-18.2-20-31.5-43.4-40.4-68.8c-1.3-3.7-2.5-7.4-3.6-11.1
	c-30.8-104.2,6.8-238.5,74.4-328.4c2.8-3.8,5.7-7.4,8.6-11l0.1-0.1c20.8-25.5,44.1-46.8,68.9-62c44-26.9,92.8-34.5,140.7-11.9
	c40.6,19.1,78.5,28.1,115.2,30.6c3.7,0.2,7.4,0.4,11.1,0.5C514.1,65.9,593,35.6,685.8,16c3.7-0.8,7.4-1.6,11.1-2.3
	C763,0.5,836.4-6.4,923.6,8.2c9.1,1.5,18,3.6,26.8,6.4c3.8,1.2,7.6,2.6,11.1,4c41.6,16.9,64.3,48.2,74,87.5
	c0.9,3.6,1.7,7.3,2.4,11.1C1055,211.5,1004.8,345.3,961.5,438.2z"/>
<path class="st1" d="M497,445.6c-0.4,3.7-1,7.5-1.9,11.1h93.7v-11.1H497z M418.8,508.4l11.1-0.1v-27.5c-3.8-0.2-7.5-0.3-11.1-0.5
	V508.4z M185.9,445.6v11.1h198.5v-11.1H185.9z M1035.5,106.1h-74V18.6c-3.6-1.4-7.3-2.8-11.1-4v91.5H696.9V13.7
	c-3.7,0.7-7.4,1.5-11.1,2.3v90.1H429.9V63.2c-3.7-0.1-7.4-0.3-11.1-0.5v43.4H162.9v-62c-24.8,15.2-48.1,36.5-68.9,62h-0.1v0.1
	c-2.9,3.6-5.8,7.3-8.6,11h8.6v328.4h-83c1.1,3.8,2.3,7.5,3.6,11.1h79.4v93.6c4,1.2,8.1,2.2,12.2,2.8c1.2,0.2,2.4,0.3,3.6,0.5l0,0
	c3.6,0.4,7.2,0.6,10.8,0.5l42.3-0.5v-97h255.9v94.2l11.1-0.1v-94.1h255.9v91.4l11.1-0.1v-91.2h253.5v4.8c0.8-1.6,1.5-3.2,2.3-4.8
	c1.8-3.6,3.5-7.3,5.3-11.1c1.2-2.4,2.3-4.9,3.5-7.4v-321h76.4C1037.2,113.4,1036.4,109.7,1035.5,106.1z M162.9,445.6V117.2h255.9
	v328.4H162.9z M429.9,445.6V117.2h255.9v328.4H429.9z M950.4,445.6H696.9V117.2h253.5L950.4,445.6z"/>
<polygon class="st2" points="863.1,533.7 863.1,546.7 711.2,548 709.5,548.1 651.8,548.6 650.4,548.6 632.9,548.8 632.4,548.8 
	525.4,549.8 349.8,551.4 349.6,551.4 305,551.8 304.5,551.8 106.1,553.7 106.1,538.7 152.7,510.6 246.3,509.9 248.3,509.9 
	249,509.9 251,509.8 295.9,509.5 298,509.4 298.6,509.4 300.6,509.4 315,509.3 315.4,509.3 350.9,509 351.2,509 628.6,506.6 
	635.4,506.6 636.1,506.6 641.3,506.5 678.9,506.2 680.9,506.2 682.8,506.2 683.7,506.2 695.4,506.1 697.8,506.1 700.9,506 
	710.6,506 726.1,505.8 728.1,505.8 731.6,505.8 732.2,505.8 806.9,505.1 "/>
<polygon class="st3" points="863.1,533.7 863.1,546.7 711.2,548 709.5,548.1 651.8,548.6 650.4,548.6 632.9,548.8 632.4,548.8 
	525.4,549.8 349.8,551.4 349.6,551.4 305,551.8 304.5,551.8 106.1,553.7 106.1,538.7 152.7,510.6 246.3,509.9 248.3,509.9 
	249,509.9 251,509.8 295.9,509.5 298,509.4 298.6,509.4 300.6,509.4 315,509.3 315.4,509.3 350.9,509 351.2,509 628.6,506.6 
	635.4,506.6 636.1,506.6 641.3,506.5 678.9,506.2 680.9,506.2 682.8,506.2 683.7,506.2 695.4,506.1 697.8,506.1 700.9,506 
	710.6,506 726.1,505.8 728.1,505.8 731.6,505.8 732.2,505.8 806.9,505.1 "/>
<path class="st4" d="M296.1,483.7v24.5c0,2.4-1.4,4.5-3.5,5.5c-0.8,0.4-1.6,0.6-2.5,0.6l-34.9,0.7c-0.9,0-1.9-0.2-2.7-0.6
	c-2.2-1-3.6-3.2-3.6-5.6v-25.2H296.1z"/>
<path class="st1" d="M296.1,483.7v24.5c0,2.4-1.4,4.5-3.5,5.5c-0.8,0.4-1.6,0.6-2.5,0.6l-34.9,0.7c-0.9,0-1.9-0.2-2.7-0.6
	c-2.2-1-3.6-3.2-3.6-5.6v-25.2H296.1z"/>
<path class="st4" d="M298.1,483.7v24.5c0,2.4-1.4,4.5-3.5,5.5c-0.8,0.4-1.6,0.6-2.5,0.6l-34.9,0.7c-0.9,0-1.9-0.2-2.7-0.6
	c-2.2-1-3.6-3.2-3.6-5.6v-25.2H298.1z"/>
<rect x="680.9" y="483.6" class="st4" width="47.2" height="31.5"/>
<rect x="680.9" y="483.6" class="st1" width="47.2" height="31.5"/>
<rect x="678.9" y="483.6" class="st4" width="47.2" height="31.5"/>
<polygon class="st1" points="298.1,483.6 298.1,488.6 250.9,489.9 250.9,483.6 "/>
<path class="st2" d="M381.4,312.4v168.2c0,2.1-1.7,3.9-3.9,4l-191.6,5.1h0c-2.2,0-3.9-1.8-4-4V312.4c0-2.2,1.8-3.9,4-4h191.6
	C379.6,308.4,381.3,310.2,381.4,312.4z"/>
<path class="st1" d="M185.9,308.4v181.2h0c-2.2,0-3.9-1.8-4-4V312.4C181.9,310.2,183.6,308.4,185.9,308.4L185.9,308.4z"/>
<polygon class="st5" points="194.6,319.1 372.1,319.1 372.1,467.4 194.6,471.4 "/>
<polygon class="st1" points="726.1,483.6 726.1,490.1 678.9,488.8 678.9,483.6 "/>
<path class="st2" d="M788.3,312.4v173.3c0,2.2-1.8,4-4,4l0,0l-191.7-5.1c-2.1-0.1-3.8-1.8-3.8-4V312.4c0-2.2,1.8-3.9,3.9-4h191.6
	C786.5,308.4,788.3,310.2,788.3,312.4z"/>
<path class="st1" d="M788.3,312.4v173.3c0,2.2-1.8,4-4,4l0,0V308.4l0,0C786.5,308.4,788.3,310.2,788.3,312.4z"/>
<polygon class="st5" points="775.6,319.1 598.1,319.1 598.1,467.4 775.6,471.4 "/>
<path class="st2" d="M583.8,312.4v168.2c0,2.1-1.7,3.9-3.8,4l-191.6,5.1l0,0c-2.2,0-4-1.8-4-4V312.4c0-2.2,1.8-3.9,4-4h191.6
	C582.1,308.4,583.8,310.2,583.8,312.4z"/>
<polygon class="st5" points="397.1,319.1 574.6,319.1 574.6,467.4 397.1,471.4 "/>
<polygon class="st1" points="863.1,533.7 863.1,546.7 711.2,548 709.5,548.1 651.8,548.6 650.4,548.6 632.9,548.8 632.4,548.8 
	525.4,549.8 349.8,551.4 349.6,551.4 305,551.8 304.5,551.8 106.1,553.7 106.1,538.7 308.6,537.3 309.1,537.3 350.1,537 350.3,537 
	633.3,535.2 633.6,535.2 633.8,535.2 634.3,535.2 639.1,535.1 640.5,535.1 715,534.6 719.4,534.6 720.4,534.6 "/>
<circle class="st6" cx="487.3" cy="298.1" r="51.3"/>
<path class="st7" d="M538.6,377.2c0,0-99.5,12-90,0c3.4-4.3,4.4-17.2,4.2-31.8c-0.1-4.5-0.2-9.1-0.5-13.6c-1.1-22-3.8-43.5-3.8-43.5
	s87-41,77-8.5c-4,13.1-2.7,31.6,0.3,48.9c0.9,5,1.9,10,3,14.7C531.6,354.7,534.8,366,538.6,377.2z"/>
<path class="st8" d="M506.1,373.1c11.5-2.1,23.7-6,34.5-1.5c2.8,1.2,5.5,2.9,8.4,3.9s6.1,1.2,9.2,1.9c10.7,2.4,19.3,10.5,24.9,20
	c5.6,9.5,8.4,20.1,11.3,30.7l6.9,25.8c6,22.5,12,45.1,13.4,68.3c-83.5,4.8-167.3,5.3-250.8,1.4c5.4-10.3,11-21.3,10.5-33
	s-7.2-23.2-4.8-34.7c1.5-7.3,6.6-13.4,9.6-20.2c8.8-19.5,1.9-45.8,17.3-60.7c6.9-6.7,17-9.2,26.6-8.9c12.3,0.4,24.8,4.2,37,6.1
	C475.8,374.6,490.4,376,506.1,373.1z"/>
<path class="st1" d="M637,484.3l-0.1,1.4v0.1l-0.2,2.3l-1.3,18.5l-1.6,22.3l-0.5,6.3l-1,13.4v0.2l-107,1l-175.6,1.9v0.8h-0.1v-0.8
	v-0.3l0.5-14.4l0.9-28.1l0.7-23.8l0.1-2.4c0.2-5.8,5-10.4,10.8-10.2c0.2,0,0.4,0,0.6,0c4.7,0.4,10.9,0.9,18.2,1.4l3,0.2
	c42.3,2.9,120.6,6.7,199.5,2c1.7-0.1,3.3-0.2,5-0.3c12.2-0.8,24.5-1.8,36.6-3c5.8-0.6,11,3.6,11.6,9.4
	C637.1,483,637.1,483.6,637,484.3L637,484.3z"/>
<path class="st4" d="M349.7,552.5v-0.8l175.6-1.9l107-1h0.3v-0.2l1-13.4l0.4-6l1.6-22.6l1.3-17.9v-0.4c0.1-0.8,0-1.7-0.1-2.5
	c0,0,0-0.1,0-0.1c-0.3-1.7-1-3.3-2-4.6c-2.2-2.9-5.8-4.4-9.4-4c-12.1,1.2-24.3,2.2-36.6,3c-1.7,0.1-3.3,0.2-5,0.3
	c-78.9,4.7-157.2,0.9-199.5-2l-3-0.2c-7.3-0.5-13.5-1-18.2-1.4c-5.4-0.5-10.2,3.2-11.2,8.5c-0.1,0.5-0.2,1.1-0.2,1.6l-0.7,22.2
	l-0.9,28.1l-0.4,14.4v0.3L349.7,552.5L349.7,552.5z"/>
<path class="st1" d="M637.3,491.3l-1.2,15.3l-1.8,22.8l-0.5,5.7l-1,12.8l-0.1,0.6v0.2l0,0l-0.2,1.5l0.1-1.5h-0.3l-107,1l-175.6,1.9
	v-0.3l0.5-14.4l1-28.1l0.6-18.7c0.1-2.2,1.2-4.1,3.1-5.2c1.1-0.7,2.5-1,3.8-0.9c2.1,0.2,4.7,0.4,7.7,0.6c4.9,0.4,10.9,0.8,17.9,1.2
	c13,0.8,29.3,1.7,48,2.4c52,2,122.2,2.7,188.9-3.2c3-0.3,6.1-0.5,9.1-0.8c1.2-0.1,2.4,0.1,3.5,0.7c0.3,0.2,0.6,0.3,0.9,0.5
	c0.9,0.6,1.6,1.5,2,2.5c0.1,0.2,0.2,0.4,0.2,0.6C637.3,489.5,637.4,490.4,637.3,491.3z"/>
<path class="st1" d="M298.1,505v3.2c0,2.4-1.4,4.5-3.5,5.5l-40.1,0.8c-2.2-1-3.6-3.2-3.6-5.6v-3L298.1,505z"/>
<polygon class="st4" points="298.6,515.6 246.3,516.6 246.3,507.9 298.6,506.9 "/>
<polygon class="st1" points="298.6,515.6 246.3,516.6 246.3,507.9 298.6,506.9 "/>
<polygon class="st4" points="300.6,515.6 248.3,516.6 248.3,507.9 300.6,506.9 "/>
<path class="st1" d="M679.2,507v3.2c0,2.4,1.4,4.5,3.5,5.5l40.1,0.8c2.2-1,3.6-3.2,3.6-5.6v-3L679.2,507z"/>
<polygon class="st1" points="678.7,517.6 731,518.6 731,509.9 678.7,508.9 "/>
<polygon class="st4" points="676.7,517.6 729,518.6 729,509.9 676.7,508.9 "/>
<path class="st4" d="M454.8,313.9c0.1,7-3.2,13.6-5.9,20.1c-10,23.6-14.3,49.2-12.7,74.7c0.7,11,2.6,22,0.7,32.9s-8.4,21.8-19,24.9
	c17.5,10.5,41.3,9.3,57.8-2.7c8.8-6.4,15.3-15.3,21.8-24.1c-0.8,15.8-5.3,31.1-13.3,44.8c29.2-2.6,55.9-17.4,73.5-40.8
	c4.3-5.8,8.1-12.2,9.7-19.2c3.1-13-1.2-26.5-4.5-39.5c-2.7-10.9-4.8-21.9-6.2-33c-0.4-3.6-0.8-7.2,0.1-10.7c1-4.1,3.7-7.5,5.6-11.2
	c5.6-10.5,5.7-23.3,2.9-34.9s-8.5-22.3-14.1-32.8c-4.5-8.5-9.3-17.3-17.5-22.3c-5.1-3.1-11-4.4-16.9-5.6l-25.4-5.4
	c-5.5-1.2-11.3-2.4-16.9-1.5c-9.5,1.5-16.1,8.3-22,15.3c-4.6,5.5-15.8,15.7-16.6,22.9c-0.7,6.6,5.1,17.6,6.1,24.6
	c1.3,9,2.2,6,7.3,11.5C452.7,305.1,454.7,309.1,454.8,313.9z"/>
<path class="st0" d="M300.3,333.6h-99.6c-0.3,0-0.5-0.2-0.5-0.5s0.2-0.5,0.5-0.5h99.6c0.3,0,0.5,0.2,0.5,0.5
	S300.5,333.6,300.3,333.6z"/>
<path class="st0" d="M300.3,342.6h-99.6c-0.3,0-0.5-0.2-0.5-0.5s0.2-0.5,0.5-0.5h99.6c0.3,0,0.5,0.2,0.5,0.5
	S300.5,342.6,300.3,342.6z"/>
<path class="st0" d="M300.3,351.6h-99.6c-0.3,0-0.5-0.2-0.5-0.5s0.2-0.5,0.5-0.5h99.6c0.3,0,0.5,0.2,0.5,0.5
	S300.5,351.6,300.3,351.6z"/>
</svg>
